# xmcd
#
# Track frame offsets: 
#        150
#        32393
#        47292
#        69459
#        92289
#        109147
#        127922
#        146936
#        165407
#        181790
#        199158
#        215046
#        237358
#        255603
#        276838
#        296123
#        317360
#
# Disc length: 4530 seconds
#
# Revision: 0
# Processed by: cddbd v1.5.2PL0 Copyright (c) Steve Scherf et al.
# Submitted via: ExactAudioCopy v1.0b3
#
DISCID=ed11b011
DTITLE=Various Artist - Most Wanted Vol.1
DYEAR=2006
DGENRE=Hip-Hop
TTITLE0=Eric B. and Rakim - Pain In Full [Seven Minutes Of Madness The C
TTITLE0=oldcut Remix]
TTITLE1=Redman - Blow Your Mind [Remix]
TTITLE2=Method Man - Release Yo' Delf [Prodigy Remix]
TTITLE3=LL Cool J - I Shot Ya [Remix feat. Keith Murray, Prodigy, Fat 
TTITLE3=Joe and Foxy Brown]
TTITLE4=Diamond D and The Psychotic Nerotics - Sally Got A One Track Min
TTITLE4=d [Showbiz Remix]
TTITLE5=Intelligent Hoodlum - Street Life
TTITLE6=Boo Yaa T.R.I.B.E. - Psyko Funk
TTITLE7=Showbiz and A.G. - Fat Pockets [Radio Remix]
TTITLE8=3rd Bass - Brooklyn-Qeens
TTITLE9=EPMD - Rampage (feat. LL Cool J)
TTITLE10=Def Squad - Rhymin' Wit' Biz (feat. Biz Markie)
TTITLE11=Jeru The Damaja - Come Clean
TTITLE12=Black Sheep - Without A Doubt [Salaam Remi Remix]
TTITLE13=Zhigge - Toss It Up
TTITLE14=Group Home - Supa Star
TTITLE15=The Legion - Jingle Jangle (feat. Dres)
TTITLE16=O.C. - Far From Yours (feat. Yvette Michele)
EXTD=
EXTT0=
EXTT1=
EXTT2=
EXTT3=
EXTT4=
EXTT5=
EXTT6=
EXTT7=
EXTT8=
EXTT9=
EXTT10=
EXTT11=
EXTT12=
EXTT13=
EXTT14=
EXTT15=
EXTT16=
PLAYORDER=
